<svg xmlns="http://www.w3.org/2000/svg" viewBox="0 0 266.54 94.68"><title>Asset 1</title><g id="Layer_2" data-name="Layer 2"><g id="Layer_1-2" data-name="Layer 1"><path d="M13,61.09c-.77-.79-1.15-2.29-1.15-4.5a40.5,40.5,0,0,1,.43-5.4q.43-3.16,1.51-9.57.15-.87,1.15-7c.68-4.11,1.27-8.42,1.8-12.93A76.39,76.39,0,0,0,17.42,13q0-3.24-2.37-3.24a8.49,8.49,0,0,0-4.5,1.91,27.36,27.36,0,0,0-5.8,6.08,2.79,2.79,0,0,1-2.23,1.37,2.18,2.18,0,0,1-1.76-1A3.46,3.46,0,0,1,0,16a6.43,6.43,0,0,1,.43-2.34A12.87,12.87,0,0,1,2,10.94,27.61,27.61,0,0,1,9.86,3.49,17.24,17.24,0,0,1,18.94.86a7.19,7.19,0,0,1,5.94,2.45q2,2.45,2,7.13a91.07,91.07,0,0,1-1.16,12.1q3.6-10.66,9.15-16.17a17.89,17.89,0,0,1,13-5.51q5.9,0,8.89,3.35t3,9a38.69,38.69,0,0,1-.94,7.7L54.43,41.47a32.33,32.33,0,0,0-.72,6.19,6.45,6.45,0,0,0,1.41,4.54A5.06,5.06,0,0,0,59,53.71a8.06,8.06,0,0,0,4.64-1.58,30.51,30.51,0,0,0,5.37-5.26,2.52,2.52,0,0,1,1.94-1,1.66,1.66,0,0,1,1.48.87A4.45,4.45,0,0,1,73,49.1a6.82,6.82,0,0,1-1.37,4.47,27.89,27.89,0,0,1-7.42,6.62,15.34,15.34,0,0,1-7.7,2.09q-6.12,0-9.58-3.64t-3.45-9.75a38,38,0,0,1,.39-5.19c.27-1.87.71-4.24,1.34-7.12L48.1,23.4c.09-.43.26-1.2.5-2.3S49,19,49.18,18a20.56,20.56,0,0,0,.21-2.91,5.12,5.12,0,0,0-1.29-3.67A4.81,4.81,0,0,0,44.42,10q-4.32,0-8.64,4.61t-8,14.86Q24.12,39.74,22,55.73a12.94,12.94,0,0,1-1.47,5.11q-1,1.44-3.78,1.44A5.17,5.17,0,0,1,13,61.09Z"/><path d="M100.76,46.73a4.45,4.45,0,0,1,.54,2.37,6.6,6.6,0,0,1-1.37,4.47,26.12,26.12,0,0,1-7.52,6A20.82,20.82,0,0,1,82,62.28q-7.56,0-11.74-4.1T66.09,46.94a20.87,20.87,0,0,1,2.09-9.25,17.13,17.13,0,0,1,5.8-6.8,14.58,14.58,0,0,1,8.39-2.52,9.14,9.14,0,0,1,6.69,2.48,9,9,0,0,1,2.52,6.73A11.67,11.67,0,0,1,88,46.12Q84.45,49.68,76,51.77q1.8,3.31,6.84,3.31a15.78,15.78,0,0,0,7.38-2.27,24.22,24.22,0,0,0,7.16-5.94,2.55,2.55,0,0,1,2-1A1.66,1.66,0,0,1,100.76,46.73ZM76.64,38.52A14.46,14.46,0,0,0,74.81,46v.14a16.36,16.36,0,0,0,6.69-3A6,6,0,0,0,84,38.45a3.12,3.12,0,0,0-.76-2.2,2.63,2.63,0,0,0-2-.83C79.37,35.42,77.87,36.46,76.64,38.52Z"/><path d="M150.26,40a2,2,0,0,1,1.66.72,3,3,0,0,1,.57,1.94,6.1,6.1,0,0,1-.86,3.5A4.88,4.88,0,0,1,149,48,22.64,22.64,0,0,1,142,49a20.37,20.37,0,0,1-6-.86c-1.4,2.25-2.93,4.58-4.61,7a25.3,25.3,0,0,1-4.93,5.62,7.63,7.63,0,0,1-4.65,1.51,4.87,4.87,0,0,1-4.35-2.23q-1.48-2.23-1.84-7.35l-.36-5.25a68.65,68.65,0,0,1-4,9.21,13,13,0,0,1-3.52,4.4,7.14,7.14,0,0,1-4.14,1.22A5.47,5.47,0,0,1,99,60c-1.13-1.54-1.83-4-2.12-7.28Q96,42.62,96,35.06V32.54a4.1,4.1,0,0,1,1.3-3.31,6,6,0,0,1,3.67-.93,4,4,0,0,1,2.77.82,3.65,3.65,0,0,1,.9,2.78q0,8.28,1,21.52,4.91-10.29,9-21.45a5.87,5.87,0,0,1,1.91-2.92,4.71,4.71,0,0,1,2.7-.75,3.64,3.64,0,0,1,2.7.79,4.07,4.07,0,0,1,.76,2.81q0,8.28,1,21.52Q128,47,130.17,43.2a10.69,10.69,0,0,1-1.08-5,11.09,11.09,0,0,1,1.08-4.75,9.92,9.92,0,0,1,3-3.74,6.75,6.75,0,0,1,4.24-1.44,4.31,4.31,0,0,1,3.39,1.47,6.34,6.34,0,0,1,1.29,4.29,19.73,19.73,0,0,1-1.72,7.41,49.74,49.74,0,0,0,7.27-1.08l1.94-.36A2.48,2.48,0,0,1,150.26,40Z"/><path d="M155.52,61.56a6.49,6.49,0,0,1-4-1.51,5,5,0,0,1-.94-3.75A172.8,172.8,0,0,1,153,38.7q1.88-10.47,4.53-20.2a3.75,3.75,0,0,1,2-2.52,9.28,9.28,0,0,1,4-.72q4.4,0,4.39,2.45a7.41,7.41,0,0,1-.43,2.31,132.46,132.46,0,0,0-3.74,15.44,185.2,185.2,0,0,0-2.67,18.47c1.44.14,3.07.21,4.9.21q12.6,0,18.83-7.63T191,26.14q0-8.58-4.89-13.25T172.29,8.21A37.4,37.4,0,0,0,160.88,10a41.86,41.86,0,0,0-10.19,4.75,3.46,3.46,0,0,1-2,.65,2.25,2.25,0,0,1-2-1.05,4.36,4.36,0,0,1-.72-2.55A6.15,6.15,0,0,1,146.59,9a5.82,5.82,0,0,1,1.94-2.05A37.7,37.7,0,0,1,160.2,1.76,50.77,50.77,0,0,1,173.08,0a35,35,0,0,1,15.2,3.06,22.23,22.23,0,0,1,9.86,9,27.72,27.72,0,0,1,3.46,14.26,39.73,39.73,0,0,1-4.32,19,30.18,30.18,0,0,1-12.6,12.57Q176.4,62.28,165,62.28A70.18,70.18,0,0,1,155.52,61.56Z"/><path d="M206.71,59a12.93,12.93,0,0,1-2.66-8.5,23.32,23.32,0,0,1,2.66-10.9,22.66,22.66,0,0,1,7.09-8.28,16,16,0,0,1,9.4-3.14,2.79,2.79,0,0,1,2.12.62,5.13,5.13,0,0,1,.9,2.19,17.14,17.14,0,0,1,3.17-.29q3.53,0,3.53,2.52a53.93,53.93,0,0,1-1.08,7.2A69.35,69.35,0,0,0,230.18,52a2.61,2.61,0,0,0,.54,1.73,1.76,1.76,0,0,0,1.41.65,5.51,5.51,0,0,0,3.31-1.76,62.2,62.2,0,0,0,5.25-5.73,2.55,2.55,0,0,1,1.95-1,1.66,1.66,0,0,1,1.47.87,4.45,4.45,0,0,1,.54,2.37,6.65,6.65,0,0,1-1.36,4.47A36.21,36.21,0,0,1,237,59.76a10.67,10.67,0,0,1-6.41,2.52,6.72,6.72,0,0,1-4.35-1.62,9.88,9.88,0,0,1-3-4.43q-3.75,6-9.43,6.05A8.76,8.76,0,0,1,206.71,59Zm12.74-5.9a12.16,12.16,0,0,0,2.09-5l2.67-13.25a8.69,8.69,0,0,0-5.58,2.27A15.18,15.18,0,0,0,214.56,43a19.5,19.5,0,0,0-1.51,7.64,5.05,5.05,0,0,0,.9,3.31A3,3,0,0,0,216.43,55,3.93,3.93,0,0,0,219.45,53.14Z"/><path d="M265.78,31.28a2.46,2.46,0,0,1,.76,2.13,10,10,0,0,1-.07,1.37q-.29,2.22-1.8,11.52-1.08,6.26-1.37,8.28-2.73,18.57-7.38,29.34T243.5,94.68a8.18,8.18,0,0,1-6-2.27,8,8,0,0,1-2.3-5.94q0-5.11,4-11t15.12-14.43l.43-2.81a8.66,8.66,0,0,1-7.12,4A8.75,8.75,0,0,1,240.55,59a12.93,12.93,0,0,1-2.67-8.5,23.33,23.33,0,0,1,2.67-10.9,22.57,22.57,0,0,1,7.09-8.28,16,16,0,0,1,9.4-3.14,2.79,2.79,0,0,1,2.12.62,5.13,5.13,0,0,1,.9,2.19,15.64,15.64,0,0,1,3.17-.29A4.51,4.51,0,0,1,265.78,31.28Zm-17.42,52.1q2.26-4.32,4.36-13.76a42.18,42.18,0,0,0-8,8.57,12.91,12.91,0,0,0-2.44,6.7,3.81,3.81,0,0,0,.47,2,1.64,1.64,0,0,0,1.54.8Q246.09,87.7,248.36,83.38ZM253.44,53a13.43,13.43,0,0,0,2.16-5.76l2.3-12.31a8.47,8.47,0,0,0-5.47,2.27,15.44,15.44,0,0,0-4,5.79,19.51,19.51,0,0,0-1.52,7.64,5.11,5.11,0,0,0,.9,3.31A3.07,3.07,0,0,0,250.27,55,4.13,4.13,0,0,0,253.44,53Z"/></g></g></svg>